<svg width="30" height="30" viewBox="0 0 30 30" fill="none" xmlns="http://www.w3.org/2000/svg">
<path d="M23.8501 25.7876H6.15015C4.90796 25.7843 3.71759 25.2894 2.83923 24.411C1.96087 23.5327 1.46595 22.3423 1.46265 21.1001V8.9126C1.46265 7.6694 1.95651 6.47711 2.83558 5.59803C3.71466 4.71896 4.90694 4.2251 6.15015 4.2251H23.8501C25.0933 4.2251 26.2856 4.71896 27.1647 5.59803C28.0438 6.47711 28.5376 7.6694 28.5376 8.9126V21.1001C28.5343 22.3423 28.0394 23.5327 27.1611 24.411C26.2827 25.2894 25.0923 25.7843 23.8501 25.7876V25.7876ZM6.15015 6.1001C5.40422 6.1001 4.68885 6.39641 4.16141 6.92386C3.63396 7.45131 3.33765 8.16668 3.33765 8.9126V21.1001C3.33765 21.846 3.63396 22.5614 4.16141 23.0888C4.68885 23.6163 5.40422 23.9126 6.15015 23.9126H23.8501C24.5961 23.9126 25.3114 23.6163 25.8389 23.0888C26.3663 22.5614 26.6626 21.846 26.6626 21.1001V8.9126C26.6626 8.16668 26.3663 7.45131 25.8389 6.92386C25.3114 6.39641 24.5961 6.1001 23.8501 6.1001H6.15015Z" fill="black"/>
<path d="M7.00025 10.6501C6.75302 10.6501 6.51134 10.5768 6.30578 10.4395C6.10022 10.3021 5.94 10.1069 5.8454 9.8785C5.75079 9.65009 5.72603 9.39876 5.77426 9.15628C5.82249 8.91381 5.94155 8.69108 6.11636 8.51626C6.29118 8.34145 6.51391 8.2224 6.75638 8.17417C6.99886 8.12593 7.25019 8.15069 7.4786 8.2453C7.70701 8.33991 7.90223 8.50012 8.03958 8.70568C8.17693 8.91125 8.25024 9.15292 8.25024 9.40015C8.25024 9.73167 8.11855 10.0496 7.88413 10.284C7.64971 10.5185 7.33177 10.6501 7.00025 10.6501ZM7.00025 8.75015C6.84775 8.75015 6.70149 8.81073 6.59366 8.91856C6.48582 9.02639 6.42524 9.17265 6.42524 9.32515C6.42278 9.44237 6.45544 9.55765 6.51903 9.65616C6.58263 9.75467 6.67424 9.83189 6.78209 9.8779C6.88993 9.92391 7.00908 9.93659 7.1242 9.91432C7.23931 9.89205 7.34513 9.83585 7.42804 9.75294C7.51095 9.67003 7.56715 9.56421 7.58942 9.4491C7.61169 9.33398 7.599 9.21483 7.553 9.10699C7.50699 8.99914 7.42976 8.90753 7.33126 8.84394C7.23275 8.78034 7.11747 8.74768 7.00025 8.75015V8.75015Z" fill="black"/>
<path d="M11.8501 10.6501C11.6029 10.6501 11.3612 10.5768 11.1556 10.4395C10.9501 10.3021 10.7899 10.1069 10.6952 9.8785C10.6006 9.65009 10.5759 9.39876 10.6241 9.15628C10.6723 8.91381 10.7914 8.69108 10.9662 8.51626C11.141 8.34145 11.3638 8.2224 11.6062 8.17417C11.8487 8.12593 12.1 8.15069 12.3285 8.2453C12.5569 8.33991 12.7521 8.50012 12.8894 8.70568C13.0268 8.91125 13.1001 9.15292 13.1001 9.40015C13.1001 9.73167 12.9684 10.0496 12.734 10.284C12.4996 10.5185 12.1816 10.6501 11.8501 10.6501ZM11.8501 8.77515C11.7721 8.76991 11.6938 8.781 11.6203 8.80771C11.5468 8.83442 11.4797 8.87616 11.4232 8.93027C11.3668 8.98437 11.3222 9.04966 11.2924 9.12196C11.2626 9.19425 11.2482 9.27197 11.2501 9.35015C11.2501 9.50265 11.3107 9.6489 11.4185 9.75673C11.5263 9.86457 11.6726 9.92515 11.8251 9.92515C11.9766 9.92196 12.121 9.86035 12.2282 9.7532C12.3353 9.64605 12.3969 9.50165 12.4001 9.35015C12.4035 9.27462 12.3919 9.19917 12.366 9.12812C12.3402 9.05707 12.3006 8.99182 12.2495 8.93609C12.1984 8.88036 12.1369 8.83525 12.0683 8.80334C11.9998 8.77144 11.9256 8.75336 11.8501 8.75015V8.77515Z" fill="black"/>
<path d="M16.6877 10.6501C16.4405 10.6501 16.1988 10.5768 15.9933 10.4395C15.7877 10.3021 15.6275 10.1069 15.5329 9.8785C15.4383 9.65009 15.4135 9.39876 15.4618 9.15628C15.51 8.91381 15.629 8.69108 15.8039 8.51626C15.9787 8.34145 16.2014 8.2224 16.4439 8.17417C16.6864 8.12593 16.9377 8.15069 17.1661 8.2453C17.3945 8.33991 17.5897 8.50012 17.7271 8.70568C17.8644 8.91125 17.9377 9.15292 17.9377 9.40015C17.9377 9.73167 17.806 10.0496 17.5716 10.284C17.3372 10.5185 17.0193 10.6501 16.6877 10.6501ZM16.6877 8.77515C16.5352 8.77515 16.389 8.83573 16.2812 8.94356C16.1733 9.05139 16.1127 9.19765 16.1127 9.35015C16.1152 9.46631 16.1521 9.57912 16.2187 9.67431C16.2853 9.76951 16.3787 9.84282 16.4869 9.88498C16.5952 9.92714 16.7135 9.93624 16.827 9.91115C16.9404 9.88606 17.0439 9.8279 17.1243 9.74401C17.2047 9.66013 17.2584 9.55429 17.2786 9.43988C17.2989 9.32547 17.2847 9.20763 17.238 9.10126C17.1913 8.99488 17.1141 8.90475 17.0161 8.84225C16.9182 8.77975 16.8039 8.7477 16.6877 8.75015V8.77515Z" fill="black"/>
<path d="M18.4375 20.55C18.3144 20.5506 18.1923 20.5266 18.0786 20.4794C17.9648 20.4322 17.8616 20.3627 17.775 20.275C17.5995 20.0993 17.5009 19.861 17.5009 19.6125C17.5009 19.3641 17.5995 19.1258 17.775 18.95L19.6 17.125L17.575 15.1C17.4864 15.013 17.4158 14.9094 17.3672 14.7951C17.3186 14.6808 17.293 14.5581 17.2918 14.4339C17.2906 14.3097 17.3139 14.1865 17.3604 14.0713C17.4069 13.9561 17.4755 13.8512 17.5625 13.7625C17.6495 13.6739 17.7532 13.6033 17.8675 13.5547C17.9818 13.5061 18.1045 13.4805 18.2287 13.4793C18.3529 13.4781 18.4761 13.5014 18.5913 13.5479C18.7065 13.5944 18.8114 13.663 18.9 13.75L21.5875 16.4375C21.7631 16.6133 21.8617 16.8516 21.8617 17.1C21.8617 17.3485 21.7631 17.5868 21.5875 17.7625L19.0875 20.2625C19.0049 20.3527 18.9044 20.4247 18.7926 20.4742C18.6807 20.5237 18.5599 20.5495 18.4375 20.55V20.55Z" fill="black"/>
<path d="M12.0627 20.55C11.9395 20.5506 11.8174 20.5266 11.7037 20.4793C11.5899 20.4321 11.4867 20.3626 11.4002 20.275L8.90015 17.775C8.72459 17.5992 8.62598 17.3609 8.62598 17.1125C8.62598 16.8641 8.72459 16.6258 8.90015 16.45L11.6002 13.75C11.7759 13.5744 12.0142 13.4758 12.2627 13.4758C12.5111 13.4758 12.7494 13.5744 12.9252 13.75C13.0136 13.8362 13.0839 13.9392 13.1319 14.053C13.1799 14.1668 13.2046 14.289 13.2046 14.4125C13.2046 14.536 13.1799 14.6582 13.1319 14.772C13.0839 14.8858 13.0136 14.9888 12.9252 15.075L10.9002 17.125L12.7252 18.95C12.8136 19.0362 12.8839 19.1392 12.9319 19.253C12.9799 19.3668 13.0046 19.489 13.0046 19.6125C13.0046 19.736 12.9799 19.8582 12.9319 19.972C12.8839 20.0858 12.8136 20.1888 12.7252 20.275C12.6399 20.3644 12.537 20.4351 12.4229 20.4824C12.3088 20.5298 12.1861 20.5528 12.0627 20.55V20.55Z" fill="black"/>
</svg>
