<svg width="29" height="28" viewBox="-2 0 30 25" fill="none" xmlns="http://www.w3.org/2000/svg">
<path d="M5.89156 11.4749C5.73258 11.4762 5.57615 11.435 5.43837 11.3557L2.01556 9.34015C1.91376 9.28063 1.82468 9.20165 1.7534 9.10771C1.68212 9.01377 1.63005 8.9067 1.60015 8.79264C1.57025 8.67857 1.56311 8.55973 1.57913 8.44291C1.59516 8.32608 1.63404 8.21355 1.69355 8.11175C1.75307 8.00995 1.83205 7.92087 1.92599 7.84959C2.01993 7.77832 2.12699 7.72624 2.24106 7.69634C2.35513 7.66644 2.47397 7.6593 2.59079 7.67532C2.70762 7.69135 2.82015 7.73023 2.92195 7.78975L6.34475 9.81719C6.51024 9.91825 6.6384 10.0704 6.70994 10.2506C6.78147 10.4308 6.7925 10.6294 6.74137 10.8164C6.69023 11.0035 6.57971 11.1688 6.42643 11.2876C6.27316 11.4064 6.08544 11.4721 5.89156 11.4749V11.4749Z" fill="black"/>
<path d="M18.3663 11.4749C18.1724 11.4721 17.9847 11.4064 17.8315 11.2876C17.6782 11.1688 17.5677 11.0035 17.5165 10.8164C17.4654 10.6294 17.4764 10.4308 17.548 10.2506C17.6195 10.0704 17.7477 9.91825 17.9131 9.81719L21.3359 7.78975C21.5415 7.66955 21.7865 7.63595 22.0168 7.69634C22.2472 7.75673 22.4441 7.90616 22.5643 8.11175C22.6845 8.31735 22.7181 8.56227 22.6577 8.79264C22.5974 9.02301 22.4479 9.21995 22.2423 9.34015L18.8195 11.3557C18.6817 11.435 18.5253 11.4762 18.3663 11.4749V11.4749Z" fill="black"/>
<path d="M22.135 22.4232C21.976 22.4244 21.8196 22.3832 21.6818 22.3039L18.259 20.2884C18.0534 20.1682 17.9039 19.9713 17.8436 19.7409C17.7832 19.5105 17.8168 19.2656 17.937 19.06C18.0572 18.8544 18.2541 18.705 18.4845 18.6446C18.7148 18.5842 18.9598 18.6178 19.1654 18.738L22.6001 20.7654C22.7664 20.867 22.895 21.0202 22.9663 21.2016C23.0375 21.383 23.0476 21.5827 22.995 21.7703C22.9423 21.958 22.8298 22.1233 22.6746 22.2412C22.5193 22.359 22.3299 22.4229 22.135 22.4232Z" fill="black"/>
<path d="M2.81457 22.4232C2.62069 22.4204 2.43297 22.3546 2.2797 22.2358C2.12643 22.1171 2.0159 21.9517 1.96477 21.7647C1.91363 21.5776 1.92466 21.379 1.9962 21.1988C2.06773 21.0186 2.1959 20.8665 2.36138 20.7654L5.78419 18.738C5.88599 18.6785 5.99851 18.6396 6.11534 18.6236C6.23217 18.6075 6.35101 18.6147 6.46507 18.6446C6.57914 18.6745 6.6862 18.7266 6.78014 18.7978C6.87408 18.8691 6.95307 18.9582 7.01258 19.06C7.0721 19.1618 7.11098 19.2743 7.127 19.3911C7.14303 19.508 7.13589 19.6268 7.10599 19.7409C7.07609 19.8549 7.02401 19.962 6.95273 20.0559C6.88146 20.1499 6.79238 20.2289 6.69057 20.2884L3.26777 22.3039C3.12999 22.3832 2.97355 22.4244 2.81457 22.4232V22.4232Z" fill="black"/>
<path d="M12.1291 23.0792C10.4779 23.0792 8.86388 22.5896 7.491 21.6722C6.11813 20.7549 5.04811 19.4511 4.41624 17.9256C3.78438 16.4002 3.61905 14.7216 3.94118 13.1022C4.2633 11.4828 5.0584 9.99527 6.22593 8.82774C7.39346 7.6602 8.88099 6.8651 10.5004 6.54298C12.1198 6.22086 13.7984 6.38619 15.3238 7.01805C16.8493 7.64991 18.1531 8.71994 19.0704 10.0928C19.9878 11.4657 20.4774 13.0797 20.4774 14.7309C20.4774 16.945 19.5978 19.0684 18.0322 20.634C16.4666 22.1996 14.3432 23.0792 12.1291 23.0792V23.0792ZM12.1291 8.24305C10.8412 8.24305 9.58222 8.62496 8.51138 9.34047C7.44054 10.056 6.60592 11.073 6.11307 12.2628C5.62021 13.4527 5.49126 14.762 5.74251 16.0251C5.99377 17.2882 6.61395 18.4485 7.52462 19.3592C8.4353 20.2699 9.59557 20.89 10.8587 21.1413C12.1219 21.3925 13.4311 21.2636 14.621 20.7707C15.8108 20.2779 16.8278 19.4433 17.5433 18.3724C18.2589 17.3016 18.6408 16.0426 18.6408 14.7547C18.6376 13.0287 17.9505 11.3743 16.73 10.1538C15.5096 8.93327 13.8551 8.24621 12.1291 8.24305V8.24305Z" fill="black"/>
<path d="M4.72276 15.6849H0.894461C0.657236 15.6849 0.429726 15.5907 0.261982 15.4229C0.0942377 15.2552 0 15.0277 0 14.7905C0 14.5532 0.0942377 14.3257 0.261982 14.158C0.429726 13.9902 0.657236 13.896 0.894461 13.896H4.72276C4.95998 13.896 5.18749 13.9902 5.35524 14.158C5.52298 14.3257 5.61722 14.5532 5.61722 14.7905C5.61722 15.0277 5.52298 15.2552 5.35524 15.4229C5.18749 15.5907 4.95998 15.6849 4.72276 15.6849Z" fill="black"/>
<path d="M23.3634 15.6849H19.5351C19.2979 15.6849 19.0704 15.5907 18.9026 15.4229C18.7349 15.2552 18.6406 15.0277 18.6406 14.7905C18.6406 14.5532 18.7349 14.3257 18.9026 14.158C19.0704 13.9902 19.2979 13.896 19.5351 13.896H23.3634C23.6006 13.896 23.8281 13.9902 23.9959 14.158C24.1636 14.3257 24.2578 14.5532 24.2578 14.7905C24.2578 15.0277 24.1636 15.2552 23.9959 15.4229C23.8281 15.5907 23.6006 15.6849 23.3634 15.6849Z" fill="black"/>
<path d="M16.8159 9.96031H16.6251C16.5097 9.93494 16.4005 9.88698 16.3038 9.81918C16.2071 9.75138 16.1247 9.66509 16.0615 9.5653C15.9983 9.46551 15.9555 9.35418 15.9356 9.23775C15.9156 9.12132 15.9189 9.0021 15.9453 8.88696C15.9846 8.67453 16.0045 8.45898 16.0049 8.24294V6.22742C16.0081 5.71754 15.91 5.21209 15.7163 4.7404C15.5227 4.26872 15.2373 3.84017 14.8767 3.47962C14.5162 3.11907 14.0876 2.83368 13.616 2.64002C13.1443 2.44635 12.6388 2.34826 12.1289 2.35142C11.101 2.35142 10.1151 2.75979 9.38819 3.48668C8.6613 4.21357 8.25294 5.19944 8.25294 6.22742V8.24294C8.25186 8.46694 8.27183 8.69055 8.31257 8.91081C8.33895 9.02595 8.34226 9.14518 8.32232 9.26161C8.30237 9.37803 8.25956 9.48936 8.19636 9.58915C8.13315 9.68895 8.05081 9.77523 7.95408 9.84303C7.85735 9.91083 7.74815 9.9588 7.63278 9.98416C7.40223 10.0307 7.16262 9.98582 6.96456 9.85897C6.76649 9.73213 6.6255 9.53325 6.57135 9.30437C6.49725 8.95549 6.46126 8.5996 6.46401 8.24294V6.22742C6.46401 4.72499 7.06085 3.2841 8.12323 2.22172C9.18561 1.15934 10.6265 0.5625 12.1289 0.5625C13.6314 0.5625 15.0723 1.15934 16.1346 2.22172C17.197 3.2841 17.7939 4.72499 17.7939 6.22742V8.24294C17.7966 8.5996 17.7606 8.95549 17.6865 9.30437C17.6322 9.49334 17.5179 9.65952 17.3608 9.77784C17.2038 9.89616 17.0125 9.9602 16.8159 9.96031V9.96031Z" fill="black"/>
</svg>
