<svg width="20" height="20" viewBox="-2 0 28 24" fill="none" xmlns="http://www.w3.org/2000/svg">
<path fill-rule="evenodd" clip-rule="evenodd" d="M9.375 2.08333C13.4021 2.08333 16.6667 5.34792 16.6667 9.375C16.6667 13.4021 13.4021 16.6667 9.375 16.6667C8.49976 16.6667 7.66274 16.5129 6.88799 16.2318C6.54649 16.1079 6.16674 16.0802 5.79633 16.1712C4.80144 16.4156 3.7858 16.5706 2.76152 16.6339C3.14669 15.6191 3.27977 14.522 3.14436 13.4383C3.11424 13.1973 3.0354 12.9859 2.94173 12.8109C2.39423 11.7882 2.08333 10.6195 2.08333 9.375C2.08333 5.34792 5.34792 2.08333 9.375 2.08333ZM18.75 9.375C18.75 4.19733 14.5527 0 9.375 0C4.19733 0 0 4.19733 0 9.375C0 10.9549 0.391644 12.4464 1.08397 13.7546C1.19203 14.719 0.991793 15.696 0.507637 16.5433L0.464912 16.6181C-0.0779172 17.568 0.608003 18.75 1.70212 18.75C3.23114 18.75 4.75138 18.5678 6.23117 18.2096C7.21526 18.5598 8.27403 18.75 9.375 18.75C14.5527 18.75 18.75 14.5527 18.75 9.375ZM21.2033 8.60221C20.7636 8.97315 20.7078 9.63034 21.0788 10.0701C22.2261 11.4302 22.9167 13.1852 22.9167 15.1042C22.9167 16.4402 22.5822 17.695 21.9932 18.7925C21.8988 18.9684 21.8204 19.1796 21.7901 19.4193C21.6412 20.597 21.7936 21.7901 22.2283 22.8878C21.0967 22.8241 19.9746 22.6555 18.8762 22.3848C18.5055 22.2934 18.1248 22.3209 17.7821 22.4459C16.9482 22.7502 16.0468 22.9167 15.1042 22.9167C13.1852 22.9167 11.4302 22.2261 10.0701 21.0788C9.63034 20.7078 8.97315 20.7636 8.60221 21.2033C8.23126 21.6431 8.28703 22.3003 8.72677 22.6712C10.4486 24.1237 12.6754 25 15.1042 25C16.2732 25 17.3971 24.7968 18.4409 24.423C20.0141 24.8055 21.6307 25 23.2566 25C24.3691 25 25.0665 23.7982 24.5146 22.8322L24.5146 22.8322L24.4692 22.7528C23.9459 21.8369 23.7306 20.7803 23.8501 19.738C24.5844 18.3545 25 16.7763 25 15.1042C25 12.6754 24.1237 10.4486 22.6712 8.72677C22.3003 8.28703 21.6431 8.23127 21.2033 8.60221ZM5.20833 10.4167C5.78363 10.4167 6.25 9.9503 6.25 9.375C6.25 8.7997 5.78363 8.33333 5.20833 8.33333C4.63304 8.33333 4.16667 8.7997 4.16667 9.375C4.16667 9.9503 4.63304 10.4167 5.20833 10.4167ZM10.4167 9.375C10.4167 9.9503 9.9503 10.4167 9.375 10.4167C8.7997 10.4167 8.33333 9.9503 8.33333 9.375C8.33333 8.7997 8.7997 8.33333 9.375 8.33333C9.9503 8.33333 10.4167 8.7997 10.4167 9.375ZM13.5417 10.4167C14.117 10.4167 14.5833 9.9503 14.5833 9.375C14.5833 8.7997 14.117 8.33333 13.5417 8.33333C12.9664 8.33333 12.5 8.7997 12.5 9.375C12.5 9.9503 12.9664 10.4167 13.5417 10.4167Z" fill="black"/>
</svg>
