<svg width="30" height="30" viewBox="0 0 30 30" fill="none" xmlns="http://www.w3.org/2000/svg">
<path d="M19.375 27.8132H10.625C9.3818 27.8132 8.18951 27.3194 7.31044 26.4403C6.43136 25.5612 5.9375 24.3689 5.9375 23.1257V6.87573C5.9375 5.63253 6.43136 4.44025 7.31044 3.56117C8.18951 2.68209 9.3818 2.18823 10.625 2.18823H18.0125C18.2611 2.18823 18.4996 2.287 18.6754 2.46282C18.8512 2.63864 18.95 2.87709 18.95 3.12573C18.95 3.37437 18.8512 3.61283 18.6754 3.78865C18.4996 3.96446 18.2611 4.06323 18.0125 4.06323H10.625C9.87908 4.06323 9.16371 4.35955 8.63626 4.88699C8.10882 5.41444 7.8125 6.12981 7.8125 6.87573V23.1257C7.8125 23.8717 8.10882 24.587 8.63626 25.1145C9.16371 25.6419 9.87908 25.9382 10.625 25.9382H19.375C20.1209 25.9382 20.8363 25.6419 21.3637 25.1145C21.8912 24.587 22.1875 23.8717 22.1875 23.1257V9.26323C22.1875 9.01459 22.2863 8.77614 22.4621 8.60032C22.6379 8.4245 22.8764 8.32573 23.125 8.32573C23.3736 8.32573 23.6121 8.4245 23.7879 8.60032C23.9637 8.77614 24.0625 9.01459 24.0625 9.26323V23.1257C24.0625 24.3689 23.5686 25.5612 22.6896 26.4403C21.8105 27.3194 20.6182 27.8132 19.375 27.8132Z" fill="black"/>
<path d="M21.9875 11.5625H18.0125C17.4332 11.5302 16.8902 11.2704 16.5016 10.8396C16.113 10.4089 15.9102 9.84206 15.9375 9.26254V4.48754C15.9102 3.90803 16.113 3.3412 16.5016 2.91044C16.8902 2.47968 17.4332 2.21987 18.0125 2.18754C18.151 2.18103 18.2892 2.20574 18.4168 2.25983C18.5445 2.31392 18.6583 2.39602 18.75 2.50004L23.875 8.63754C24.011 8.80814 24.0858 9.0194 24.0875 9.23754C24.1043 9.52856 24.0632 9.82002 23.9664 10.095C23.8696 10.37 23.7192 10.623 23.5238 10.8393C23.3284 11.0556 23.092 11.2309 22.8282 11.3551C22.5645 11.4793 22.2787 11.5498 21.9875 11.5625V11.5625ZM17.825 4.36254C17.8182 4.40394 17.8182 4.44615 17.825 4.48754V9.26254C17.825 9.55004 17.9875 9.68754 18.025 9.68754H22C22 9.68754 22.0875 9.68754 22.1375 9.53754L17.825 4.36254Z" fill="black"/>
<path d="M18.75 17.1875H11.25C11.0014 17.1875 10.7629 17.0887 10.5871 16.9129C10.4113 16.7371 10.3125 16.4986 10.3125 16.25C10.3125 16.0014 10.4113 15.7629 10.5871 15.5871C10.7629 15.4113 11.0014 15.3125 11.25 15.3125H18.75C18.9986 15.3125 19.2371 15.4113 19.4129 15.5871C19.5887 15.7629 19.6875 16.0014 19.6875 16.25C19.6875 16.4986 19.5887 16.7371 19.4129 16.9129C19.2371 17.0887 18.9986 17.1875 18.75 17.1875Z" fill="black"/>
<path d="M18.75 22.1875H11.25C11.0014 22.1875 10.7629 22.0887 10.5871 21.9129C10.4113 21.7371 10.3125 21.4986 10.3125 21.25C10.3125 21.0014 10.4113 20.7629 10.5871 20.5871C10.7629 20.4113 11.0014 20.3125 11.25 20.3125H18.75C18.9986 20.3125 19.2371 20.4113 19.4129 20.5871C19.5887 20.7629 19.6875 21.0014 19.6875 21.25C19.6875 21.4986 19.5887 21.7371 19.4129 21.9129C19.2371 22.0887 18.9986 22.1875 18.75 22.1875Z" fill="black"/>
</svg>
